<svg xmlns="http://www.w3.org/2000/svg" xmlns:xlink="http://www.w3.org/1999/xlink" width="1080" zoomAndPan="magnify" viewBox="0 0 810 809.999993" height="1080" preserveAspectRatio="xMidYMid meet" version="1.0"><defs><g/><clipPath id="0e5aea00a8"><rect x="0" width="662" y="0" height="256"/></clipPath></defs><g transform="matrix(1, 0, 0, 1, 76, 277)"><g clip-path="url(#0e5aea00a8)"><g fill="#ffa3a3" fill-opacity="1"><g transform="translate(9.481361, 158.234928)"><g><path d="M 103.09375 -133.359375 C 109.382812 -125.171875 113.703125 -116.726562 116.046875 -108.03125 C 118.398438 -99.34375 119.328125 -90.753906 118.828125 -82.265625 C 118.328125 -73.773438 116.828125 -65.679688 114.328125 -57.984375 C 111.828125 -50.296875 108.78125 -43.378906 105.1875 -37.234375 C 101.59375 -31.085938 98 -26.019531 94.40625 -22.03125 C 95.5 -18.632812 96.320312 -15.0625 96.875 -11.3125 C 97.425781 -7.5625 97.703125 -3.789062 97.703125 0 L 68.03125 0 C 68.226562 -5.09375 67.675781 -10.210938 66.375 -15.359375 C 65.082031 -20.503906 63.234375 -25.222656 60.828125 -29.515625 C 58.429688 -33.816406 55.535156 -37.289062 52.140625 -39.9375 C 48.742188 -42.582031 45 -43.90625 40.90625 -43.90625 C 36.3125 -43.90625 32.640625 -42.828125 29.890625 -40.671875 C 27.140625 -38.523438 25.765625 -35.707031 25.765625 -32.21875 C 25.765625 -28.820312 27.140625 -26.023438 29.890625 -23.828125 C 32.640625 -21.628906 36.3125 -20.53125 40.90625 -20.53125 C 46.894531 -20.53125 52.789062 -22.175781 58.59375 -25.46875 C 60.09375 -22.476562 61.363281 -19.179688 62.40625 -15.578125 C 63.457031 -11.984375 64.132812 -8.238281 64.4375 -4.34375 C 55.445312 -1.144531 47.40625 0.453125 40.3125 0.453125 C 32.8125 0.453125 26.140625 -1.066406 20.296875 -4.109375 C 14.453125 -7.160156 9.859375 -11.160156 6.515625 -16.109375 C 3.171875 -21.054688 1.5 -26.425781 1.5 -32.21875 C 1.5 -38.007812 3.171875 -43.375 6.515625 -48.3125 C 9.859375 -53.257812 14.453125 -57.234375 20.296875 -60.234375 C 26.140625 -63.234375 32.8125 -64.734375 40.3125 -64.734375 C 48.695312 -64.734375 56.359375 -63.035156 63.296875 -59.640625 C 70.242188 -56.242188 76.21875 -51.648438 81.21875 -45.859375 C 84.8125 -51.453125 87.207031 -57.519531 88.40625 -64.0625 C 89.601562 -70.601562 89.828125 -77.21875 89.078125 -83.90625 C 88.328125 -90.601562 86.703125 -97.097656 84.203125 -103.390625 C 81.710938 -109.679688 78.492188 -115.425781 74.546875 -120.625 C 70.597656 -125.820312 66.078125 -130.117188 60.984375 -133.515625 Z M 103.09375 -133.359375 "/></g></g></g><g fill="#ffa3a3" fill-opacity="1"><g transform="translate(118.866645, 158.234928)"><g><path d="M 79.125 -33.5625 C 79.125 -27.769531 77.5 -22.300781 74.25 -17.15625 C 71 -12.007812 66.550781 -7.835938 60.90625 -4.640625 C 55.257812 -1.441406 48.789062 0.203125 41.5 0.296875 C 41.40625 0.296875 41.332031 0.242188 41.28125 0.140625 C 41.226562 0.046875 41.203125 0 41.203125 0 C 41.109375 0 41.0625 0.046875 41.0625 0.140625 C 41.0625 0.242188 41.0625 0.296875 41.0625 0.296875 C 36.257812 0.296875 31.585938 -0.523438 27.046875 -2.171875 C 22.503906 -3.816406 18.429688 -6.140625 14.828125 -9.140625 C 11.234375 -12.140625 8.363281 -15.710938 6.21875 -19.859375 C 4.070312 -24.003906 3 -28.570312 3 -33.5625 C 3 -39.5625 4.644531 -45.082031 7.9375 -50.125 C 11.238281 -55.164062 15.757812 -59.207031 21.5 -62.25 C 27.25 -65.300781 33.769531 -66.828125 41.0625 -66.828125 L 41.203125 -66.828125 C 41.203125 -66.828125 41.25 -66.828125 41.34375 -66.828125 C 41.445312 -66.828125 41.5 -66.828125 41.5 -66.828125 C 48.394531 -66.828125 54.6875 -65.378906 60.375 -62.484375 C 66.070312 -59.585938 70.617188 -55.640625 74.015625 -50.640625 C 77.421875 -45.648438 79.125 -39.957031 79.125 -33.5625 Z M 41.203125 -21.28125 C 45.597656 -21.28125 49.046875 -22.398438 51.546875 -24.640625 C 54.046875 -26.890625 55.34375 -29.863281 55.4375 -33.5625 C 55.4375 -37.0625 54.160156 -39.910156 51.609375 -42.109375 C 49.066406 -44.304688 45.597656 -45.40625 41.203125 -45.40625 C 36.804688 -45.40625 33.3125 -44.304688 30.71875 -42.109375 C 28.125 -39.910156 26.828125 -37.0625 26.828125 -33.5625 C 26.828125 -29.96875 28.125 -27.019531 30.71875 -24.71875 C 33.3125 -22.425781 36.804688 -21.28125 41.203125 -21.28125 Z M 41.203125 -21.28125 "/></g></g></g><g fill="#ffa3a3" fill-opacity="1"><g transform="translate(202.179275, 158.234928)"><g><path d="M 116.28125 -69.671875 C 121.96875 -69.671875 126.535156 -68.195312 129.984375 -65.25 C 133.429688 -62.3125 135.851562 -58.289062 137.25 -53.1875 C 138.65625 -48.09375 139.109375 -42.25 138.609375 -35.65625 C 138.109375 -29.0625 136.734375 -22.066406 134.484375 -14.671875 C 132.234375 -7.285156 129.210938 0.148438 125.421875 7.640625 L 95.15625 7.640625 C 98.445312 1.648438 101.390625 -4.4375 103.984375 -10.625 C 106.585938 -16.820312 108.4375 -22.519531 109.53125 -27.71875 C 110.632812 -32.914062 110.6875 -37.085938 109.6875 -40.234375 C 108.6875 -43.378906 106.238281 -44.953125 102.34375 -44.953125 C 97.945312 -44.953125 94.148438 -43.648438 90.953125 -41.046875 C 87.753906 -38.453125 85.457031 -35.109375 84.0625 -31.015625 C 83.363281 -24.921875 81.914062 -18.550781 79.71875 -11.90625 C 77.519531 -5.269531 74.722656 1.394531 71.328125 8.09375 L 41.0625 8.09375 C 44.351562 2.09375 47.296875 -4.023438 49.890625 -10.265625 C 52.492188 -16.503906 54.367188 -22.242188 55.515625 -27.484375 C 56.660156 -32.734375 56.734375 -36.957031 55.734375 -40.15625 C 54.742188 -43.351562 52.300781 -44.953125 48.40625 -44.953125 C 42.507812 -44.953125 37.785156 -42.78125 34.234375 -38.4375 C 30.691406 -34.09375 28.820312 -28.671875 28.625 -22.171875 C 29.125 -19.179688 29.695312 -16.109375 30.34375 -12.953125 C 30.988281 -9.804688 31.8125 -6.640625 32.8125 -3.453125 L 9.59375 -3.453125 C 5.394531 -17.035156 2.820312 -29.519531 1.875 -40.90625 C 0.925781 -52.289062 1.847656 -63.628906 4.640625 -74.921875 L 35.0625 -74.921875 C 33.757812 -71.828125 32.609375 -68.601562 31.609375 -65.25 C 30.617188 -61.90625 29.769531 -58.488281 29.0625 -55 C 32.46875 -59.488281 36.863281 -63.109375 42.25 -65.859375 C 47.644531 -68.609375 54.335938 -69.878906 62.328125 -69.671875 C 67.722656 -69.671875 72.09375 -68.320312 75.4375 -65.625 C 78.789062 -62.925781 81.265625 -59.28125 82.859375 -54.6875 C 86.160156 -59.28125 90.53125 -62.976562 95.96875 -65.78125 C 101.414062 -68.582031 108.1875 -69.878906 116.28125 -69.671875 Z M 116.28125 -69.671875 "/></g></g></g><g fill="#ffa3a3" fill-opacity="1"><g transform="translate(343.930625, 158.234928)"><g><path d="M 27.578125 -79.125 C 24.472656 -79.125 21.644531 -79.894531 19.09375 -81.4375 C 16.550781 -82.988281 14.503906 -85.0625 12.953125 -87.65625 C 11.410156 -90.25 10.640625 -93.097656 10.640625 -96.203125 C 10.640625 -99.398438 11.410156 -102.269531 12.953125 -104.8125 C 14.503906 -107.363281 16.550781 -109.410156 19.09375 -110.953125 C 21.644531 -112.503906 24.472656 -113.28125 27.578125 -113.28125 C 30.765625 -113.28125 33.632812 -112.503906 36.1875 -110.953125 C 38.738281 -109.410156 40.785156 -107.363281 42.328125 -104.8125 C 43.878906 -102.269531 44.65625 -99.398438 44.65625 -96.203125 C 44.65625 -93.097656 43.878906 -90.25 42.328125 -87.65625 C 40.785156 -85.0625 38.738281 -82.988281 36.1875 -81.4375 C 33.632812 -79.894531 30.765625 -79.125 27.578125 -79.125 Z M 7.34375 -9.296875 C 5.945312 -18.484375 5.320312 -27.742188 5.46875 -37.078125 C 5.613281 -46.421875 6.285156 -56.738281 7.484375 -68.03125 L 30.71875 -68.03125 C 29.613281 -56.539062 29.609375 -46.023438 30.703125 -36.484375 C 31.804688 -26.941406 33.707031 -17.878906 36.40625 -9.296875 Z M 7.34375 -9.296875 "/></g></g></g><g fill="#ffa3a3" fill-opacity="1"><g transform="translate(381.84085, 158.234928)"><g><path d="M 63.828125 -69.671875 C 70.421875 -69.671875 75.515625 -67.75 79.109375 -63.90625 C 82.710938 -60.0625 84.960938 -54.867188 85.859375 -48.328125 C 86.753906 -41.785156 86.425781 -34.414062 84.875 -26.21875 C 83.332031 -18.03125 80.6875 -9.566406 76.9375 -0.828125 C 73.195312 7.910156 68.53125 16.378906 62.9375 24.578125 L 32.21875 24.875 C 35.113281 20.78125 37.984375 16.207031 40.828125 11.15625 C 43.679688 6.113281 46.328125 0.996094 48.765625 -4.1875 C 51.210938 -9.382812 53.234375 -14.40625 54.828125 -19.25 C 56.429688 -24.09375 57.429688 -28.460938 57.828125 -32.359375 C 58.234375 -36.253906 57.835938 -39.328125 56.640625 -41.578125 C 55.441406 -43.828125 53.191406 -44.953125 49.890625 -44.953125 C 44.003906 -44.953125 39.285156 -42.78125 35.734375 -38.4375 C 32.191406 -34.09375 30.320312 -28.671875 30.125 -22.171875 C 30.625 -19.179688 31.195312 -16.109375 31.84375 -12.953125 C 32.488281 -9.804688 33.3125 -6.640625 34.3125 -3.453125 L 11.09375 -3.453125 C 6.894531 -17.035156 4.320312 -29.519531 3.375 -40.90625 C 2.425781 -52.289062 3.347656 -63.628906 6.140625 -74.921875 L 36.5625 -74.921875 C 35.257812 -71.828125 34.109375 -68.601562 33.109375 -65.25 C 32.109375 -61.90625 31.257812 -58.488281 30.5625 -55 C 33.957031 -59.488281 38.351562 -63.109375 43.75 -65.859375 C 49.144531 -68.609375 55.835938 -69.878906 63.828125 -69.671875 Z M 63.828125 -69.671875 "/></g></g></g><g fill="#ffa3a3" fill-opacity="1"><g transform="translate(475.043127, 158.234928)"><g><path d="M -16.484375 20.53125 C -16.484375 12.738281 -14.882812 6.269531 -11.6875 1.125 C -8.488281 -4.019531 -4.144531 -8.066406 1.34375 -11.015625 C 6.84375 -13.960938 13.160156 -15.957031 20.296875 -17 C 27.441406 -18.050781 35.035156 -18.375 43.078125 -17.96875 C 51.117188 -17.570312 59.1875 -16.628906 67.28125 -15.140625 C 67.476562 -16.835938 67.625 -18.535156 67.71875 -20.234375 C 67.820312 -21.929688 67.925781 -23.726562 68.03125 -25.625 C 68.125 -30.820312 67.5 -36.066406 66.15625 -41.359375 C 64.8125 -46.648438 62.890625 -51.519531 60.390625 -55.96875 C 57.890625 -60.414062 54.914062 -63.984375 51.46875 -66.671875 C 48.019531 -69.367188 44.25 -70.71875 40.15625 -70.71875 C 35.457031 -70.71875 31.632812 -69.617188 28.6875 -67.421875 C 25.75 -65.234375 24.28125 -62.289062 24.28125 -58.59375 C 24.28125 -55.09375 25.75 -52.191406 28.6875 -49.890625 C 31.632812 -47.597656 35.457031 -46.453125 40.15625 -46.453125 C 43.050781 -46.453125 46.046875 -46.953125 49.140625 -47.953125 C 52.242188 -48.953125 55.296875 -50.25 58.296875 -51.84375 C 59.785156 -48.75 61.03125 -45.328125 62.03125 -41.578125 C 63.03125 -37.835938 63.679688 -34.019531 63.984375 -30.125 C 59.984375 -28.519531 55.785156 -27.289062 51.390625 -26.4375 C 46.992188 -25.59375 43 -25.171875 39.40625 -25.171875 C 31.71875 -25.171875 24.847656 -26.71875 18.796875 -29.8125 C 12.753906 -32.914062 7.984375 -36.988281 4.484375 -42.03125 C 0.992188 -47.070312 -0.75 -52.59375 -0.75 -58.59375 C -0.75 -64.582031 0.992188 -70.125 4.484375 -75.21875 C 7.984375 -80.3125 12.753906 -84.40625 18.796875 -87.5 C 24.847656 -90.601562 31.71875 -92.15625 39.40625 -92.15625 C 47.394531 -92.15625 54.6875 -90.628906 61.28125 -87.578125 C 67.875 -84.535156 73.46875 -79.816406 78.0625 -73.421875 C 79.96875 -77.222656 81.414062 -81.34375 82.40625 -85.78125 C 83.40625 -90.226562 83.90625 -95.050781 83.90625 -100.25 L 115.828125 -100.25 C 115.828125 -87.757812 113.53125 -76.867188 108.9375 -67.578125 C 104.34375 -58.285156 98 -50.441406 89.90625 -44.046875 C 90.800781 -38.554688 91.25 -32.765625 91.25 -26.671875 C 91.25 -14.878906 90.050781 -3.863281 87.65625 6.375 C 85.257812 16.613281 81.5625 25.601562 76.5625 33.34375 C 71.570312 41.082031 65.179688 47.125 57.390625 51.46875 C 49.597656 55.8125 40.304688 57.984375 29.515625 57.984375 C 20.023438 57.984375 11.832031 56.359375 4.9375 53.109375 C -1.945312 49.867188 -7.238281 45.398438 -10.9375 39.703125 C -14.632812 34.015625 -16.484375 27.625 -16.484375 20.53125 Z M 89.15625 18.28125 C 90.550781 14.28125 91.695312 10.15625 92.59375 5.90625 C 93.5 1.664062 94.203125 -2.75 94.703125 -7.34375 C 102.097656 -4.75 109.691406 -1.324219 117.484375 2.921875 C 125.273438 7.171875 133.210938 12.238281 141.296875 18.125 L 141.296875 59.1875 C 130.515625 49.394531 120.898438 41.175781 112.453125 34.53125 C 104.015625 27.894531 96.25 22.476562 89.15625 18.28125 Z M 9.4375 18.578125 C 9.4375 23.078125 10.957031 26.800781 14 29.75 C 17.050781 32.695312 22.273438 34.171875 29.671875 34.171875 C 37.054688 34.171875 43.644531 31.597656 49.4375 26.453125 C 55.238281 21.304688 59.535156 14.738281 62.328125 6.75 C 56.734375 5.25 50.863281 4.195312 44.71875 3.59375 C 38.582031 3 32.84375 3.023438 27.5 3.671875 C 22.15625 4.316406 17.804688 5.835938 14.453125 8.234375 C 11.109375 10.640625 9.4375 14.085938 9.4375 18.578125 Z M 9.4375 18.578125 "/></g></g></g><g fill="#ffa3a3" fill-opacity="1"><g transform="translate(581.881073, 158.234928)"><g><path d="M 79.125 -33.5625 C 79.125 -27.769531 77.5 -22.300781 74.25 -17.15625 C 71 -12.007812 66.550781 -7.835938 60.90625 -4.640625 C 55.257812 -1.441406 48.789062 0.203125 41.5 0.296875 C 41.40625 0.296875 41.332031 0.242188 41.28125 0.140625 C 41.226562 0.046875 41.203125 0 41.203125 0 C 41.109375 0 41.0625 0.046875 41.0625 0.140625 C 41.0625 0.242188 41.0625 0.296875 41.0625 0.296875 C 36.257812 0.296875 31.585938 -0.523438 27.046875 -2.171875 C 22.503906 -3.816406 18.429688 -6.140625 14.828125 -9.140625 C 11.234375 -12.140625 8.363281 -15.710938 6.21875 -19.859375 C 4.070312 -24.003906 3 -28.570312 3 -33.5625 C 3 -39.5625 4.644531 -45.082031 7.9375 -50.125 C 11.238281 -55.164062 15.757812 -59.207031 21.5 -62.25 C 27.25 -65.300781 33.769531 -66.828125 41.0625 -66.828125 L 41.203125 -66.828125 C 41.203125 -66.828125 41.25 -66.828125 41.34375 -66.828125 C 41.445312 -66.828125 41.5 -66.828125 41.5 -66.828125 C 48.394531 -66.828125 54.6875 -65.378906 60.375 -62.484375 C 66.070312 -59.585938 70.617188 -55.640625 74.015625 -50.640625 C 77.421875 -45.648438 79.125 -39.957031 79.125 -33.5625 Z M 41.203125 -21.28125 C 45.597656 -21.28125 49.046875 -22.398438 51.546875 -24.640625 C 54.046875 -26.890625 55.34375 -29.863281 55.4375 -33.5625 C 55.4375 -37.0625 54.160156 -39.910156 51.609375 -42.109375 C 49.066406 -44.304688 45.597656 -45.40625 41.203125 -45.40625 C 36.804688 -45.40625 33.3125 -44.304688 30.71875 -42.109375 C 28.125 -39.910156 26.828125 -37.0625 26.828125 -33.5625 C 26.828125 -29.96875 28.125 -27.019531 30.71875 -24.71875 C 33.3125 -22.425781 36.804688 -21.28125 41.203125 -21.28125 Z M 41.203125 -21.28125 "/></g></g></g><g fill="#f4f0e6" fill-opacity="1"><g transform="translate(1.137268, 149.890827)"><g><path d="M 103.09375 -133.359375 C 109.382812 -125.171875 113.703125 -116.726562 116.046875 -108.03125 C 118.398438 -99.34375 119.328125 -90.753906 118.828125 -82.265625 C 118.328125 -73.773438 116.828125 -65.679688 114.328125 -57.984375 C 111.828125 -50.296875 108.78125 -43.378906 105.1875 -37.234375 C 101.59375 -31.085938 98 -26.019531 94.40625 -22.03125 C 95.5 -18.632812 96.320312 -15.0625 96.875 -11.3125 C 97.425781 -7.5625 97.703125 -3.789062 97.703125 0 L 68.03125 0 C 68.226562 -5.09375 67.675781 -10.210938 66.375 -15.359375 C 65.082031 -20.503906 63.234375 -25.222656 60.828125 -29.515625 C 58.429688 -33.816406 55.535156 -37.289062 52.140625 -39.9375 C 48.742188 -42.582031 45 -43.90625 40.90625 -43.90625 C 36.3125 -43.90625 32.640625 -42.828125 29.890625 -40.671875 C 27.140625 -38.523438 25.765625 -35.707031 25.765625 -32.21875 C 25.765625 -28.820312 27.140625 -26.023438 29.890625 -23.828125 C 32.640625 -21.628906 36.3125 -20.53125 40.90625 -20.53125 C 46.894531 -20.53125 52.789062 -22.175781 58.59375 -25.46875 C 60.09375 -22.476562 61.363281 -19.179688 62.40625 -15.578125 C 63.457031 -11.984375 64.132812 -8.238281 64.4375 -4.34375 C 55.445312 -1.144531 47.40625 0.453125 40.3125 0.453125 C 32.8125 0.453125 26.140625 -1.066406 20.296875 -4.109375 C 14.453125 -7.160156 9.859375 -11.160156 6.515625 -16.109375 C 3.171875 -21.054688 1.5 -26.425781 1.5 -32.21875 C 1.5 -38.007812 3.171875 -43.375 6.515625 -48.3125 C 9.859375 -53.257812 14.453125 -57.234375 20.296875 -60.234375 C 26.140625 -63.234375 32.8125 -64.734375 40.3125 -64.734375 C 48.695312 -64.734375 56.359375 -63.035156 63.296875 -59.640625 C 70.242188 -56.242188 76.21875 -51.648438 81.21875 -45.859375 C 84.8125 -51.453125 87.207031 -57.519531 88.40625 -64.0625 C 89.601562 -70.601562 89.828125 -77.21875 89.078125 -83.90625 C 88.328125 -90.601562 86.703125 -97.097656 84.203125 -103.390625 C 81.710938 -109.679688 78.492188 -115.425781 74.546875 -120.625 C 70.597656 -125.820312 66.078125 -130.117188 60.984375 -133.515625 Z M 103.09375 -133.359375 "/></g></g></g><g fill="#f4f0e6" fill-opacity="1"><g transform="translate(110.522551, 149.890827)"><g><path d="M 79.125 -33.5625 C 79.125 -27.769531 77.5 -22.300781 74.25 -17.15625 C 71 -12.007812 66.550781 -7.835938 60.90625 -4.640625 C 55.257812 -1.441406 48.789062 0.203125 41.5 0.296875 C 41.40625 0.296875 41.332031 0.242188 41.28125 0.140625 C 41.226562 0.046875 41.203125 0 41.203125 0 C 41.109375 0 41.0625 0.046875 41.0625 0.140625 C 41.0625 0.242188 41.0625 0.296875 41.0625 0.296875 C 36.257812 0.296875 31.585938 -0.523438 27.046875 -2.171875 C 22.503906 -3.816406 18.429688 -6.140625 14.828125 -9.140625 C 11.234375 -12.140625 8.363281 -15.710938 6.21875 -19.859375 C 4.070312 -24.003906 3 -28.570312 3 -33.5625 C 3 -39.5625 4.644531 -45.082031 7.9375 -50.125 C 11.238281 -55.164062 15.757812 -59.207031 21.5 -62.25 C 27.25 -65.300781 33.769531 -66.828125 41.0625 -66.828125 L 41.203125 -66.828125 C 41.203125 -66.828125 41.25 -66.828125 41.34375 -66.828125 C 41.445312 -66.828125 41.5 -66.828125 41.5 -66.828125 C 48.394531 -66.828125 54.6875 -65.378906 60.375 -62.484375 C 66.070312 -59.585938 70.617188 -55.640625 74.015625 -50.640625 C 77.421875 -45.648438 79.125 -39.957031 79.125 -33.5625 Z M 41.203125 -21.28125 C 45.597656 -21.28125 49.046875 -22.398438 51.546875 -24.640625 C 54.046875 -26.890625 55.34375 -29.863281 55.4375 -33.5625 C 55.4375 -37.0625 54.160156 -39.910156 51.609375 -42.109375 C 49.066406 -44.304688 45.597656 -45.40625 41.203125 -45.40625 C 36.804688 -45.40625 33.3125 -44.304688 30.71875 -42.109375 C 28.125 -39.910156 26.828125 -37.0625 26.828125 -33.5625 C 26.828125 -29.96875 28.125 -27.019531 30.71875 -24.71875 C 33.3125 -22.425781 36.804688 -21.28125 41.203125 -21.28125 Z M 41.203125 -21.28125 "/></g></g></g><g fill="#f4f0e6" fill-opacity="1"><g transform="translate(193.835181, 149.890827)"><g><path d="M 116.28125 -69.671875 C 121.96875 -69.671875 126.535156 -68.195312 129.984375 -65.25 C 133.429688 -62.3125 135.851562 -58.289062 137.25 -53.1875 C 138.65625 -48.09375 139.109375 -42.25 138.609375 -35.65625 C 138.109375 -29.0625 136.734375 -22.066406 134.484375 -14.671875 C 132.234375 -7.285156 129.210938 0.148438 125.421875 7.640625 L 95.15625 7.640625 C 98.445312 1.648438 101.390625 -4.4375 103.984375 -10.625 C 106.585938 -16.820312 108.4375 -22.519531 109.53125 -27.71875 C 110.632812 -32.914062 110.6875 -37.085938 109.6875 -40.234375 C 108.6875 -43.378906 106.238281 -44.953125 102.34375 -44.953125 C 97.945312 -44.953125 94.148438 -43.648438 90.953125 -41.046875 C 87.753906 -38.453125 85.457031 -35.109375 84.0625 -31.015625 C 83.363281 -24.921875 81.914062 -18.550781 79.71875 -11.90625 C 77.519531 -5.269531 74.722656 1.394531 71.328125 8.09375 L 41.0625 8.09375 C 44.351562 2.09375 47.296875 -4.023438 49.890625 -10.265625 C 52.492188 -16.503906 54.367188 -22.242188 55.515625 -27.484375 C 56.660156 -32.734375 56.734375 -36.957031 55.734375 -40.15625 C 54.742188 -43.351562 52.300781 -44.953125 48.40625 -44.953125 C 42.507812 -44.953125 37.785156 -42.78125 34.234375 -38.4375 C 30.691406 -34.09375 28.820312 -28.671875 28.625 -22.171875 C 29.125 -19.179688 29.695312 -16.109375 30.34375 -12.953125 C 30.988281 -9.804688 31.8125 -6.640625 32.8125 -3.453125 L 9.59375 -3.453125 C 5.394531 -17.035156 2.820312 -29.519531 1.875 -40.90625 C 0.925781 -52.289062 1.847656 -63.628906 4.640625 -74.921875 L 35.0625 -74.921875 C 33.757812 -71.828125 32.609375 -68.601562 31.609375 -65.25 C 30.617188 -61.90625 29.769531 -58.488281 29.0625 -55 C 32.46875 -59.488281 36.863281 -63.109375 42.25 -65.859375 C 47.644531 -68.609375 54.335938 -69.878906 62.328125 -69.671875 C 67.722656 -69.671875 72.09375 -68.320312 75.4375 -65.625 C 78.789062 -62.925781 81.265625 -59.28125 82.859375 -54.6875 C 86.160156 -59.28125 90.53125 -62.976562 95.96875 -65.78125 C 101.414062 -68.582031 108.1875 -69.878906 116.28125 -69.671875 Z M 116.28125 -69.671875 "/></g></g></g><g fill="#f4f0e6" fill-opacity="1"><g transform="translate(335.586531, 149.890827)"><g><path d="M 27.578125 -79.125 C 24.472656 -79.125 21.644531 -79.894531 19.09375 -81.4375 C 16.550781 -82.988281 14.503906 -85.0625 12.953125 -87.65625 C 11.410156 -90.25 10.640625 -93.097656 10.640625 -96.203125 C 10.640625 -99.398438 11.410156 -102.269531 12.953125 -104.8125 C 14.503906 -107.363281 16.550781 -109.410156 19.09375 -110.953125 C 21.644531 -112.503906 24.472656 -113.28125 27.578125 -113.28125 C 30.765625 -113.28125 33.632812 -112.503906 36.1875 -110.953125 C 38.738281 -109.410156 40.785156 -107.363281 42.328125 -104.8125 C 43.878906 -102.269531 44.65625 -99.398438 44.65625 -96.203125 C 44.65625 -93.097656 43.878906 -90.25 42.328125 -87.65625 C 40.785156 -85.0625 38.738281 -82.988281 36.1875 -81.4375 C 33.632812 -79.894531 30.765625 -79.125 27.578125 -79.125 Z M 7.34375 -9.296875 C 5.945312 -18.484375 5.320312 -27.742188 5.46875 -37.078125 C 5.613281 -46.421875 6.285156 -56.738281 7.484375 -68.03125 L 30.71875 -68.03125 C 29.613281 -56.539062 29.609375 -46.023438 30.703125 -36.484375 C 31.804688 -26.941406 33.707031 -17.878906 36.40625 -9.296875 Z M 7.34375 -9.296875 "/></g></g></g><g fill="#f4f0e6" fill-opacity="1"><g transform="translate(373.496756, 149.890827)"><g><path d="M 63.828125 -69.671875 C 70.421875 -69.671875 75.515625 -67.75 79.109375 -63.90625 C 82.710938 -60.0625 84.960938 -54.867188 85.859375 -48.328125 C 86.753906 -41.785156 86.425781 -34.414062 84.875 -26.21875 C 83.332031 -18.03125 80.6875 -9.566406 76.9375 -0.828125 C 73.195312 7.910156 68.53125 16.378906 62.9375 24.578125 L 32.21875 24.875 C 35.113281 20.78125 37.984375 16.207031 40.828125 11.15625 C 43.679688 6.113281 46.328125 0.996094 48.765625 -4.1875 C 51.210938 -9.382812 53.234375 -14.40625 54.828125 -19.25 C 56.429688 -24.09375 57.429688 -28.460938 57.828125 -32.359375 C 58.234375 -36.253906 57.835938 -39.328125 56.640625 -41.578125 C 55.441406 -43.828125 53.191406 -44.953125 49.890625 -44.953125 C 44.003906 -44.953125 39.285156 -42.78125 35.734375 -38.4375 C 32.191406 -34.09375 30.320312 -28.671875 30.125 -22.171875 C 30.625 -19.179688 31.195312 -16.109375 31.84375 -12.953125 C 32.488281 -9.804688 33.3125 -6.640625 34.3125 -3.453125 L 11.09375 -3.453125 C 6.894531 -17.035156 4.320312 -29.519531 3.375 -40.90625 C 2.425781 -52.289062 3.347656 -63.628906 6.140625 -74.921875 L 36.5625 -74.921875 C 35.257812 -71.828125 34.109375 -68.601562 33.109375 -65.25 C 32.109375 -61.90625 31.257812 -58.488281 30.5625 -55 C 33.957031 -59.488281 38.351562 -63.109375 43.75 -65.859375 C 49.144531 -68.609375 55.835938 -69.878906 63.828125 -69.671875 Z M 63.828125 -69.671875 "/></g></g></g><g fill="#f4f0e6" fill-opacity="1"><g transform="translate(466.699033, 149.890827)"><g><path d="M -16.484375 20.53125 C -16.484375 12.738281 -14.882812 6.269531 -11.6875 1.125 C -8.488281 -4.019531 -4.144531 -8.066406 1.34375 -11.015625 C 6.84375 -13.960938 13.160156 -15.957031 20.296875 -17 C 27.441406 -18.050781 35.035156 -18.375 43.078125 -17.96875 C 51.117188 -17.570312 59.1875 -16.628906 67.28125 -15.140625 C 67.476562 -16.835938 67.625 -18.535156 67.71875 -20.234375 C 67.820312 -21.929688 67.925781 -23.726562 68.03125 -25.625 C 68.125 -30.820312 67.5 -36.066406 66.15625 -41.359375 C 64.8125 -46.648438 62.890625 -51.519531 60.390625 -55.96875 C 57.890625 -60.414062 54.914062 -63.984375 51.46875 -66.671875 C 48.019531 -69.367188 44.25 -70.71875 40.15625 -70.71875 C 35.457031 -70.71875 31.632812 -69.617188 28.6875 -67.421875 C 25.75 -65.234375 24.28125 -62.289062 24.28125 -58.59375 C 24.28125 -55.09375 25.75 -52.191406 28.6875 -49.890625 C 31.632812 -47.597656 35.457031 -46.453125 40.15625 -46.453125 C 43.050781 -46.453125 46.046875 -46.953125 49.140625 -47.953125 C 52.242188 -48.953125 55.296875 -50.25 58.296875 -51.84375 C 59.785156 -48.75 61.03125 -45.328125 62.03125 -41.578125 C 63.03125 -37.835938 63.679688 -34.019531 63.984375 -30.125 C 59.984375 -28.519531 55.785156 -27.289062 51.390625 -26.4375 C 46.992188 -25.59375 43 -25.171875 39.40625 -25.171875 C 31.71875 -25.171875 24.847656 -26.71875 18.796875 -29.8125 C 12.753906 -32.914062 7.984375 -36.988281 4.484375 -42.03125 C 0.992188 -47.070312 -0.75 -52.59375 -0.75 -58.59375 C -0.75 -64.582031 0.992188 -70.125 4.484375 -75.21875 C 7.984375 -80.3125 12.753906 -84.40625 18.796875 -87.5 C 24.847656 -90.601562 31.71875 -92.15625 39.40625 -92.15625 C 47.394531 -92.15625 54.6875 -90.628906 61.28125 -87.578125 C 67.875 -84.535156 73.46875 -79.816406 78.0625 -73.421875 C 79.96875 -77.222656 81.414062 -81.34375 82.40625 -85.78125 C 83.40625 -90.226562 83.90625 -95.050781 83.90625 -100.25 L 115.828125 -100.25 C 115.828125 -87.757812 113.53125 -76.867188 108.9375 -67.578125 C 104.34375 -58.285156 98 -50.441406 89.90625 -44.046875 C 90.800781 -38.554688 91.25 -32.765625 91.25 -26.671875 C 91.25 -14.878906 90.050781 -3.863281 87.65625 6.375 C 85.257812 16.613281 81.5625 25.601562 76.5625 33.34375 C 71.570312 41.082031 65.179688 47.125 57.390625 51.46875 C 49.597656 55.8125 40.304688 57.984375 29.515625 57.984375 C 20.023438 57.984375 11.832031 56.359375 4.9375 53.109375 C -1.945312 49.867188 -7.238281 45.398438 -10.9375 39.703125 C -14.632812 34.015625 -16.484375 27.625 -16.484375 20.53125 Z M 89.15625 18.28125 C 90.550781 14.28125 91.695312 10.15625 92.59375 5.90625 C 93.5 1.664062 94.203125 -2.75 94.703125 -7.34375 C 102.097656 -4.75 109.691406 -1.324219 117.484375 2.921875 C 125.273438 7.171875 133.210938 12.238281 141.296875 18.125 L 141.296875 59.1875 C 130.515625 49.394531 120.898438 41.175781 112.453125 34.53125 C 104.015625 27.894531 96.25 22.476562 89.15625 18.28125 Z M 9.4375 18.578125 C 9.4375 23.078125 10.957031 26.800781 14 29.75 C 17.050781 32.695312 22.273438 34.171875 29.671875 34.171875 C 37.054688 34.171875 43.644531 31.597656 49.4375 26.453125 C 55.238281 21.304688 59.535156 14.738281 62.328125 6.75 C 56.734375 5.25 50.863281 4.195312 44.71875 3.59375 C 38.582031 3 32.84375 3.023438 27.5 3.671875 C 22.15625 4.316406 17.804688 5.835938 14.453125 8.234375 C 11.109375 10.640625 9.4375 14.085938 9.4375 18.578125 Z M 9.4375 18.578125 "/></g></g></g><g fill="#f4f0e6" fill-opacity="1"><g transform="translate(573.536979, 149.890827)"><g><path d="M 79.125 -33.5625 C 79.125 -27.769531 77.5 -22.300781 74.25 -17.15625 C 71 -12.007812 66.550781 -7.835938 60.90625 -4.640625 C 55.257812 -1.441406 48.789062 0.203125 41.5 0.296875 C 41.40625 0.296875 41.332031 0.242188 41.28125 0.140625 C 41.226562 0.046875 41.203125 0 41.203125 0 C 41.109375 0 41.0625 0.046875 41.0625 0.140625 C 41.0625 0.242188 41.0625 0.296875 41.0625 0.296875 C 36.257812 0.296875 31.585938 -0.523438 27.046875 -2.171875 C 22.503906 -3.816406 18.429688 -6.140625 14.828125 -9.140625 C 11.234375 -12.140625 8.363281 -15.710938 6.21875 -19.859375 C 4.070312 -24.003906 3 -28.570312 3 -33.5625 C 3 -39.5625 4.644531 -45.082031 7.9375 -50.125 C 11.238281 -55.164062 15.757812 -59.207031 21.5 -62.25 C 27.25 -65.300781 33.769531 -66.828125 41.0625 -66.828125 L 41.203125 -66.828125 C 41.203125 -66.828125 41.25 -66.828125 41.34375 -66.828125 C 41.445312 -66.828125 41.5 -66.828125 41.5 -66.828125 C 48.394531 -66.828125 54.6875 -65.378906 60.375 -62.484375 C 66.070312 -59.585938 70.617188 -55.640625 74.015625 -50.640625 C 77.421875 -45.648438 79.125 -39.957031 79.125 -33.5625 Z M 41.203125 -21.28125 C 45.597656 -21.28125 49.046875 -22.398438 51.546875 -24.640625 C 54.046875 -26.890625 55.34375 -29.863281 55.4375 -33.5625 C 55.4375 -37.0625 54.160156 -39.910156 51.609375 -42.109375 C 49.066406 -44.304688 45.597656 -45.40625 41.203125 -45.40625 C 36.804688 -45.40625 33.3125 -44.304688 30.71875 -42.109375 C 28.125 -39.910156 26.828125 -37.0625 26.828125 -33.5625 C 26.828125 -29.96875 28.125 -27.019531 30.71875 -24.71875 C 33.3125 -22.425781 36.804688 -21.28125 41.203125 -21.28125 Z M 41.203125 -21.28125 "/></g></g></g></g></g></svg>